<?xml version="1.0" encoding="UTF-8"?>
<svg version="1.1" xmlns="http://www.w3.org/2000/svg" width="184" height="59">
<path d="M0 0 C1.79244141 0.01740234 1.79244141 0.01740234 3.62109375 0.03515625 C5.41740234 0.04869141 5.41740234 0.04869141 7.25 0.0625 C8.17683594 0.07410156 9.10367188 0.08570312 10.05859375 0.09765625 C12.08640848 4.94934784 14.11269625 9.80167355 16.13769531 14.65454102 C16.82382032 16.29826207 17.51033065 17.94182235 18.19726562 19.58520508 C20.49583898 25.08464264 22.78285135 30.58873222 25.05859375 36.09765625 C25.36567261 36.83876648 25.67275146 37.57987671 25.98913574 38.34344482 C26.84897201 40.42450036 27.70120064 42.50849014 28.55078125 44.59375 C29.27950439 46.3735022 29.27950439 46.3735022 30.02294922 48.18920898 C31.05859375 51.09765625 31.05859375 51.09765625 31.05859375 54.09765625 C26.10859375 54.09765625 21.15859375 54.09765625 16.05859375 54.09765625 C13.05859375 47.47265625 13.05859375 47.47265625 13.05859375 44.09765625 C3.15859375 44.59265625 3.15859375 44.59265625 -6.94140625 45.09765625 C-8.26140625 48.06765625 -9.58140625 51.03765625 -10.94140625 54.09765625 C-15.89140625 54.09765625 -20.84140625 54.09765625 -25.94140625 54.09765625 C-21.86541666 42.94805952 -17.4489587 32.01954002 -12.70776367 21.13745117 C-11.60820318 18.61261742 -10.51565052 16.08482897 -9.42382812 13.55664062 C-8.72566059 11.94644101 -8.02710817 10.33640821 -7.328125 8.7265625 C-6.83912971 7.59559898 -6.83912971 7.59559898 -6.34025574 6.44178772 C-3.5791805 0.11883069 -3.5791805 0.11883069 0 0 Z M2.05859375 18.09765625 C1.22119594 20.22105785 0.38879092 22.34642905 -0.44140625 24.47265625 C-0.90546875 25.65601563 -1.36953125 26.839375 -1.84765625 28.05859375 C-3.05428419 30.87298065 -3.05428419 30.87298065 -2.94140625 33.09765625 C0.68859375 33.09765625 4.31859375 33.09765625 8.05859375 33.09765625 C6.97322457 27.58732042 5.84468686 23.03663948 3.05859375 18.09765625 C2.72859375 18.09765625 2.39859375 18.09765625 2.05859375 18.09765625 Z " fill="#D4002A" transform="translate(26.94140625,1.90234375)"/>
<path d="M0 0 C4.95 0 9.9 0 15 0 C16.57232761 4.6428523 18.13874495 9.28764033 19.69970703 13.93432617 C20.23161236 15.5149515 20.76513164 17.09503465 21.30029297 18.67456055 C22.06902737 20.94439505 22.83194572 23.21611294 23.59375 25.48828125 C23.83436157 26.19463211 24.07497314 26.90098297 24.32287598 27.6287384 C25.29588092 30.54675212 26 32.9013002 26 36 C26.66 36 27.32 36 28 36 C28.12310547 34.98470215 28.24621094 33.9694043 28.37304688 32.92333984 C28.97073807 29.18311495 29.86729253 25.82569554 31.03125 22.2265625 C31.42957031 20.99035156 31.82789062 19.75414062 32.23828125 18.48046875 C32.54886475 17.53179932 32.54886475 17.53179932 32.86572266 16.56396484 C33.50451954 14.61118393 34.13373425 12.65550041 34.76171875 10.69921875 C37.86176485 1.13823515 37.86176485 1.13823515 39 0 C41.35313555 -0.07271741 43.70833668 -0.08370868 46.0625 -0.0625 C47.35285156 -0.05347656 48.64320312 -0.04445312 49.97265625 -0.03515625 C50.97167969 -0.02355469 51.97070312 -0.01195313 53 0 C54 2 54 2 52.81591797 5.60083008 C52.2159066 7.16012624 51.60733192 8.71614285 50.9921875 10.26953125 C50.66969025 11.10151535 50.34719299 11.93349945 50.0149231 12.79069519 C48.97546091 15.46748925 47.92543626 18.13999584 46.875 20.8125 C46.18939617 22.57198991 45.50449223 24.33175271 44.8203125 26.09179688 C43.49555719 29.49706209 42.16700225 32.90080117 40.83496094 36.30322266 C38.53099446 42.19238356 36.26332884 48.09508954 34 54 C29.05 54 24.1 54 19 54 C17.4287832 49.92656944 15.86067756 45.85221238 14.30029297 41.7746582 C13.76855937 40.38790087 13.23504198 39.00182615 12.69970703 37.61645508 C11.93051643 35.62497922 11.16777516 33.63113631 10.40625 31.63671875 C9.94541016 30.43748779 9.48457031 29.23825684 9.00976562 28.00268555 C8 25 8 25 8 22 C7.34 21.67 6.68 21.34 6 21 C5.66666667 18.66666667 5.33333333 16.33333333 5 14 C4.34 13.67 3.68 13.34 3 13 C2.1484375 10.8203125 2.1484375 10.8203125 1.375 8.125 C1.11460938 7.24070312 0.85421875 6.35640625 0.5859375 5.4453125 C0 3 0 3 0 0 Z " fill="#D4002A" transform="translate(50,2)"/>
<path d="M0 0 C7.51322897 -0.4078986 13.83566184 2.05320165 20.04296875 6.19140625 C18.66108422 9.40184507 17.11874972 11.2407699 14.41796875 13.44140625 C13.78632813 13.9621875 13.1546875 14.48296875 12.50390625 15.01953125 C12.02179688 15.40625 11.5396875 15.79296875 11.04296875 16.19140625 C10.42421875 15.69640625 9.80546875 15.20140625 9.16796875 14.69140625 C4.78267134 12.58646349 0.82583614 12.94065398 -3.95703125 13.19140625 C-4.37484004 15.56446203 -4.37484004 15.56446203 -3.95703125 18.19140625 C-0.66062449 20.78014404 3.07144006 22.01262356 6.98046875 23.44140625 C12.42943578 25.68273013 16.17345617 27.94946201 19.04296875 33.19140625 C20.883795 39.03873668 19.64364199 43.80791144 17.04296875 49.19140625 C13.61023966 53.70299305 9.58204225 56.11602372 4.04296875 57.19140625 C-0.63598327 57.42308741 -5.27699612 57.36887949 -9.95703125 57.19140625 C-9.95703125 56.53140625 -9.95703125 55.87140625 -9.95703125 55.19140625 C-10.65828125 55.10890625 -11.35953125 55.02640625 -12.08203125 54.94140625 C-15.60976072 54.021129 -18.01814739 52.31013648 -20.95703125 50.19140625 C-19.56330305 45.75681652 -17.3512089 43.31762251 -13.95703125 40.19140625 C-9.95703125 42.19140625 -9.95703125 42.19140625 -8.11328125 43.25390625 C-5.63098328 44.33316624 -3.89858132 44.39556949 -1.20703125 44.31640625 C-0.4078125 44.29835937 0.39140625 44.2803125 1.21484375 44.26171875 C1.818125 44.23851562 2.42140625 44.2153125 3.04296875 44.19140625 C3.70296875 42.54140625 4.36296875 40.89140625 5.04296875 39.19140625 C2.44194811 36.01135981 -0.44459588 35.13108992 -4.26953125 33.81640625 C-10.594638 31.45681743 -15.14901378 29.65022228 -18.39453125 23.44140625 C-19.38241164 17.7336529 -18.89066393 13.09458057 -16.33203125 7.87890625 C-11.80721502 2.75871946 -6.74114295 0.65931338 0 0 Z " fill="#D4002A" transform="translate(148.95703125,0.80859375)"/>
<path d="M0 0 C4.29 0 8.58 0 13 0 C14 1 14 1 14.12025452 3.13233948 C14.1169236 4.54131752 14.1169236 4.54131752 14.11352539 5.97875977 C14.11344986 7.03978409 14.11337433 8.10080841 14.11329651 9.19398499 C14.10813522 10.348134 14.10297394 11.50228302 14.09765625 12.69140625 C14.0962413 13.86638168 14.09482635 15.04135712 14.09336853 16.25193787 C14.08774992 20.02215064 14.07519426 23.79230504 14.0625 27.5625 C14.0574874 30.11132727 14.05292408 32.66015547 14.04882812 35.20898438 C14.03777444 41.4726789 14.02049734 47.73632954 14 54 C9.38 54 4.76 54 0 54 C0 36.18 0 18.36 0 0 Z " fill="#D4002A" transform="translate(108,2)"/>
<path d="M0 0 C3 0.25 3 0.25 5 2.25 C5.25 4.75 5.25 4.75 5 7.25 C3 9.25 3 9.25 -0.625 9.375 C-1.73875 9.33375 -2.8525 9.2925 -4 9.25 C-4.625 5.875 -4.625 5.875 -5 2.25 C-3 0.25 -3 0.25 0 0 Z M-3 3.25 C-2 6.25 -2 6.25 -2 6.25 Z M2 4.25 C3 6.25 3 6.25 3 6.25 Z " fill="#D4002A" transform="translate(178,2.75)"/>
</svg>
